<svg xmlns="http://www.w3.org/2000/svg" width="1440" height="900"><path d="M748,490L676,525L766,598Z" fill="#8b8b8b" stroke="#8b8b8b" stroke-width="1.51"/><path d="M766,598L815,542L748,490Z" fill="#868686" stroke="#868686" stroke-width="1.51"/><path d="M676,525L657,590L766,598Z" fill="#8a8a8a" stroke="#8a8a8a" stroke-width="1.51"/><path d="M657,590L719,647L766,598Z" fill="#848484" stroke="#848484" stroke-width="1.51"/><path d="M766,598L791,654L815,542Z" fill="#7f7f7f" stroke="#7f7f7f" stroke-width="1.51"/><path d="M719,647L791,654L766,598Z" fill="#7e7e7e" stroke="#7e7e7e" stroke-width="1.51"/><path d="M676,525L601,537L657,590Z" fill="#919191" stroke="#919191" stroke-width="1.51"/><path d="M709,391L610,509L676,525Z" fill="#989898" stroke="#989898" stroke-width="1.51"/><path d="M610,509L601,537L676,525Z" fill="#959595" stroke="#959595" stroke-width="1.51"/><path d="M657,590L615,627L719,647Z" fill="#878787" stroke="#878787" stroke-width="1.51"/><path d="M601,537L615,627L657,590Z" fill="#8f8f8f" stroke="#8f8f8f" stroke-width="1.51"/><path d="M815,542L864,476L748,490Z" fill="#888888" stroke="#888888" stroke-width="1.51"/><path d="M904,549L864,476L815,542Z" fill="#828282" stroke="#828282" stroke-width="1.51"/><path d="M748,490L709,391L676,525Z" fill="#959595" stroke="#959595" stroke-width="1.51"/><path d="M741,375L709,391L748,490Z" fill="#999999" stroke="#999999" stroke-width="1.51"/><path d="M719,647L710,713L791,654Z" fill="#7b7b7b" stroke="#7b7b7b" stroke-width="1.51"/><path d="M624,716L710,713L719,647Z" fill="#7d7d7d" stroke="#7d7d7d" stroke-width="1.51"/><path d="M890,633L904,549L815,542Z" fill="#7b7b7b" stroke="#7b7b7b" stroke-width="1.51"/><path d="M826,369L741,375L748,490Z" fill="#969696" stroke="#969696" stroke-width="1.51"/><path d="M791,654L890,633L815,542Z" fill="#7a7a7a" stroke="#7a7a7a" stroke-width="1.51"/><path d="M813,731L890,633L791,654Z" fill="#737373" stroke="#737373" stroke-width="1.51"/><path d="M741,375L727,361L709,391Z" fill="#9f9f9f" stroke="#9f9f9f" stroke-width="1.51"/><path d="M571,367L528,480L610,509Z" fill="#a3a3a3" stroke="#a3a3a3" stroke-width="1.51"/><path d="M808,329L727,361L741,375Z" fill="#9f9f9f" stroke="#9f9f9f" stroke-width="1.51"/><path d="M615,627L624,716L719,647Z" fill="#838383" stroke="#838383" stroke-width="1.51"/><path d="M534,616L624,716L615,627Z" fill="#898989" stroke="#898989" stroke-width="1.51"/><path d="M710,713L813,731L791,654Z" fill="#757575" stroke="#757575" stroke-width="1.51"/><path d="M735,780L813,731L710,713Z" fill="#727272" stroke="#727272" stroke-width="1.51"/><path d="M864,476L826,369L748,490Z" fill="#8f8f8f" stroke="#8f8f8f" stroke-width="1.51"/><path d="M967,430L826,369L864,476Z" fill="#8b8b8b" stroke="#8b8b8b" stroke-width="1.51"/><path d="M601,537L534,616L615,627Z" fill="#919191" stroke="#919191" stroke-width="1.51"/><path d="M528,480L534,616L601,537Z" fill="#9a9a9a" stroke="#9a9a9a" stroke-width="1.51"/><path d="M610,509L528,480L601,537Z" fill="#9b9b9b" stroke="#9b9b9b" stroke-width="1.51"/><path d="M571,367L610,509L709,391Z" fill="#a1a1a1" stroke="#a1a1a1" stroke-width="1.51"/><path d="M624,716L735,780L710,713Z" fill="#777777" stroke="#777777" stroke-width="1.51"/><path d="M826,369L808,329L741,375Z" fill="#9c9c9c" stroke="#9c9c9c" stroke-width="1.51"/><path d="M534,616L510,635L624,716Z" fill="#8c8c8c" stroke="#8c8c8c" stroke-width="1.51"/><path d="M455,646L510,635L429,555Z" fill="#999999" stroke="#999999" stroke-width="1.51"/><path d="M597,286L571,367L709,391Z" fill="#ababab" stroke="#ababab" stroke-width="1.51"/><path d="M712,291L709,391L727,361Z" fill="#a3a3a3" stroke="#a3a3a3" stroke-width="1.51"/><path d="M904,549L968,478L864,476Z" fill="#808080" stroke="#808080" stroke-width="1.51"/><path d="M826,369L922,313L808,329Z" fill="#999999" stroke="#999999" stroke-width="1.51"/><path d="M1061,591L968,478L904,549Z" fill="#767676" stroke="#767676" stroke-width="1.51"/><path d="M890,633L955,654L904,549Z" fill="#737373" stroke="#737373" stroke-width="1.51"/><path d="M936,749L955,654L890,633Z" fill="#6b6b6b" stroke="#6b6b6b" stroke-width="1.51"/><path d="M936,749L890,633L813,731Z" fill="#6c6c6c" stroke="#6c6c6c" stroke-width="1.51"/><path d="M808,329L712,291L727,361Z" fill="#a3a3a3" stroke="#a3a3a3" stroke-width="1.51"/><path d="M968,478L967,430L864,476Z" fill="#838383" stroke="#838383" stroke-width="1.51"/><path d="M429,555L510,635L534,616Z" fill="#989898" stroke="#989898" stroke-width="1.51"/><path d="M571,367L481,429L528,480Z" fill="#aaaaaa" stroke="#aaaaaa" stroke-width="1.51"/><path d="M968,478L997,457L967,430Z" fill="#818181" stroke="#818181" stroke-width="1.51"/><path d="M1061,591L997,457L968,478Z" fill="#787878" stroke="#787878" stroke-width="1.51"/><path d="M837,817L936,749L813,731Z" fill="#666666" stroke="#666666" stroke-width="1.51"/><path d="M955,654L1061,591L904,549Z" fill="#707070" stroke="#707070" stroke-width="1.51"/><path d="M735,780L837,817L813,731Z" fill="#6a6a6a" stroke="#6a6a6a" stroke-width="1.51"/><path d="M507,795L546,810L624,716Z" fill="#7d7d7d" stroke="#7d7d7d" stroke-width="1.51"/><path d="M654,859L775,841L735,780Z" fill="#676767" stroke="#676767" stroke-width="1.51"/><path d="M429,555L534,616L528,480Z" fill="#9e9e9e" stroke="#9e9e9e" stroke-width="1.51"/><path d="M571,367L508,292L481,429Z" fill="#b3b3b3" stroke="#b3b3b3" stroke-width="1.51"/><path d="M712,291L597,286L709,391Z" fill="#aaaaaa" stroke="#aaaaaa" stroke-width="1.51"/><path d="M735,780L775,841L837,817Z" fill="#646464" stroke="#646464" stroke-width="1.51"/><path d="M654,859L735,780L624,716Z" fill="#727272" stroke="#727272" stroke-width="1.51"/><path d="M808,329L746,249L712,291Z" fill="#a7a7a7" stroke="#a7a7a7" stroke-width="1.51"/><path d="M712,291L712,232L597,286Z" fill="#b0b0b0" stroke="#b0b0b0" stroke-width="1.51"/><path d="M823,245L746,249L808,329Z" fill="#a5a5a5" stroke="#a5a5a5" stroke-width="1.51"/><path d="M967,430L922,313L826,369Z" fill="#919191" stroke="#919191" stroke-width="1.51"/><path d="M1050,377L922,313L967,430Z" fill="#8a8a8a" stroke="#8a8a8a" stroke-width="1.51"/><path d="M481,429L429,555L528,480Z" fill="#a6a6a6" stroke="#a6a6a6" stroke-width="1.51"/><path d="M936,749L1032,644L955,654Z" fill="#676767" stroke="#676767" stroke-width="1.51"/><path d="M922,313L823,245L808,329Z" fill="#9f9f9f" stroke="#9f9f9f" stroke-width="1.51"/><path d="M746,249L712,232L712,291Z" fill="#adadad" stroke="#adadad" stroke-width="1.51"/><path d="M669,141L712,232L748,104Z" fill="#b7b7b7" stroke="#b7b7b7" stroke-width="1.51"/><path d="M566,841L654,859L624,716Z" fill="#737373" stroke="#737373" stroke-width="1.51"/><path d="M455,713L624,716L510,635Z" fill="#8b8b8b" stroke="#8b8b8b" stroke-width="1.51"/><path d="M455,646L455,713L510,635Z" fill="#929292" stroke="#929292" stroke-width="1.51"/><path d="M360,703L455,713L455,646Z" fill="#929292" stroke="#929292" stroke-width="1.51"/><path d="M1032,644L1061,591L955,654Z" fill="#6a6a6a" stroke="#6a6a6a" stroke-width="1.51"/><path d="M546,810L566,841L624,716Z" fill="#797979" stroke="#797979" stroke-width="1.51"/><path d="M455,713L507,795L624,716Z" fill="#848484" stroke="#848484" stroke-width="1.51"/><path d="M507,795L566,841L546,810Z" fill="#787878" stroke="#787878" stroke-width="1.51"/><path d="M597,286L508,292L571,367Z" fill="#b6b6b6" stroke="#b6b6b6" stroke-width="1.51"/><path d="M481,429L378,483L429,555Z" fill="#aaaaaa" stroke="#aaaaaa" stroke-width="1.51"/><path d="M508,248L508,292L597,286Z" fill="#bcbcbc" stroke="#bcbcbc" stroke-width="1.51"/><path d="M936,749L992,789L1032,644Z" fill="#616161" stroke="#616161" stroke-width="1.51"/><path d="M1032,644L1104,604L1061,591Z" fill="#676767" stroke="#676767" stroke-width="1.51"/><path d="M945,880L992,789L936,749Z" fill="#585858" stroke="#585858" stroke-width="1.51"/><path d="M945,880L936,749L837,817Z" fill="#5b5b5b" stroke="#5b5b5b" stroke-width="1.51"/><path d="M654,859L706,906L775,841Z" fill="#606060" stroke="#606060" stroke-width="1.51"/><path d="M856,962L945,880L837,817Z" fill="#515151" stroke="#515151" stroke-width="1.51"/><path d="M575,921L706,906L654,859Z" fill="#616161" stroke="#616161" stroke-width="1.51"/><path d="M712,232L580,223L597,286Z" fill="#b6b6b6" stroke="#b6b6b6" stroke-width="1.51"/><path d="M385,386L378,483L481,429Z" fill="#b1b1b1" stroke="#b1b1b1" stroke-width="1.51"/><path d="M429,555L331,566L455,646Z" fill="#9f9f9f" stroke="#9f9f9f" stroke-width="1.51"/><path d="M997,457L1050,377L967,430Z" fill="#828282" stroke="#828282" stroke-width="1.51"/><path d="M922,313L972,251L823,245Z" fill="#9c9c9c" stroke="#9c9c9c" stroke-width="1.51"/><path d="M1144,424L1050,377L997,457Z" fill="#7e7e7e" stroke="#7e7e7e" stroke-width="1.51"/><path d="M992,789L1073,681L1032,644Z" fill="#606060" stroke="#606060" stroke-width="1.51"/><path d="M1061,591L1140,527L997,457Z" fill="#717171" stroke="#717171" stroke-width="1.51"/><path d="M706,906L732,917L775,841Z" fill="#5b5b5b" stroke="#5b5b5b" stroke-width="1.51"/><path d="M402,345L385,386L481,429Z" fill="#b6b6b6" stroke="#b6b6b6" stroke-width="1.51"/><path d="M580,223L508,248L597,286Z" fill="#bcbcbc" stroke="#bcbcbc" stroke-width="1.51"/><path d="M1073,681L1104,604L1032,644Z" fill="#646464" stroke="#646464" stroke-width="1.51"/><path d="M1021,296L972,251L922,313Z" fill="#959595" stroke="#959595" stroke-width="1.51"/><path d="M748,104L712,232L746,249Z" fill="#b1b1b1" stroke="#b1b1b1" stroke-width="1.51"/><path d="M402,345L481,429L508,292Z" fill="#b8b8b8" stroke="#b8b8b8" stroke-width="1.51"/><path d="M1050,377L1021,296L922,313Z" fill="#8e8e8e" stroke="#8e8e8e" stroke-width="1.51"/><path d="M385,253L402,345L508,292Z" fill="#c1c1c1" stroke="#c1c1c1" stroke-width="1.51"/><path d="M856,962L837,817L775,841Z" fill="#585858" stroke="#585858" stroke-width="1.51"/><path d="M992,789L1122,715L1073,681Z" fill="#5b5b5b" stroke="#5b5b5b" stroke-width="1.51"/><path d="M378,483L331,566L429,555Z" fill="#a7a7a7" stroke="#a7a7a7" stroke-width="1.51"/><path d="M385,386L341,463L378,483Z" fill="#b3b3b3" stroke="#b3b3b3" stroke-width="1.51"/><path d="M312,383L341,463L385,386Z" fill="#b8b8b8" stroke="#b8b8b8" stroke-width="1.51"/><path d="M341,463L331,566L378,483Z" fill="#acacac" stroke="#acacac" stroke-width="1.51"/><path d="M455,713L373,828L507,795Z" fill="#858585" stroke="#858585" stroke-width="1.51"/><path d="M331,566L360,703L455,646Z" fill="#9b9b9b" stroke="#9b9b9b" stroke-width="1.51"/><path d="M534,925L575,921L566,841Z" fill="#696969" stroke="#696969" stroke-width="1.51"/><path d="M566,841L575,921L654,859Z" fill="#696969" stroke="#696969" stroke-width="1.51"/><path d="M706,906L729,1038L732,917Z" fill="#545454" stroke="#545454" stroke-width="1.51"/><path d="M534,925L566,841L507,795Z" fill="#717171" stroke="#717171" stroke-width="1.51"/><path d="M1199,578L1140,527L1104,604Z" fill="#666666" stroke="#666666" stroke-width="1.51"/><path d="M1104,604L1140,527L1061,591Z" fill="#696969" stroke="#696969" stroke-width="1.51"/><path d="M1050,377L1087,279L1021,296Z" fill="#8b8b8b" stroke="#8b8b8b" stroke-width="1.51"/><path d="M712,232L669,141L580,223Z" fill="#b8b8b8" stroke="#b8b8b8" stroke-width="1.51"/><path d="M580,223L527,161L508,248Z" fill="#c2c2c2" stroke="#c2c2c2" stroke-width="1.51"/><path d="M748,104L746,249L802,101Z" fill="#b3b3b3" stroke="#b3b3b3" stroke-width="1.51"/><path d="M360,703L350,731L455,713Z" fill="#919191" stroke="#919191" stroke-width="1.51"/><path d="M268,654L350,731L360,703Z" fill="#979797" stroke="#979797" stroke-width="1.51"/><path d="M1073,681L1162,686L1104,604Z" fill="#5f5f5f" stroke="#5f5f5f" stroke-width="1.51"/><path d="M1071,832L1122,715L992,789Z" fill="#555555" stroke="#555555" stroke-width="1.51"/><path d="M825,1009L856,962L732,917Z" fill="#4d4d4d" stroke="#4d4d4d" stroke-width="1.51"/><path d="M418,880L534,925L507,795Z" fill="#737373" stroke="#737373" stroke-width="1.51"/><path d="M972,251L877,143L823,245Z" fill="#a3a3a3" stroke="#a3a3a3" stroke-width="1.51"/><path d="M945,112L877,143L972,251Z" fill="#a3a3a3" stroke="#a3a3a3" stroke-width="1.51"/><path d="M1140,527L1144,424L997,457Z" fill="#757575" stroke="#757575" stroke-width="1.51"/><path d="M1021,296L1014,204L972,251Z" fill="#969696" stroke="#969696" stroke-width="1.51"/><path d="M825,1009L732,917L729,1038Z" fill="#4d4d4d" stroke="#4d4d4d" stroke-width="1.51"/><path d="M732,917L856,962L775,841Z" fill="#555555" stroke="#555555" stroke-width="1.51"/><path d="M385,253L328,354L402,345Z" fill="#c3c3c3" stroke="#c3c3c3" stroke-width="1.51"/><path d="M565,108L527,161L580,223Z" fill="#c4c4c4" stroke="#c4c4c4" stroke-width="1.51"/><path d="M995,940L1030,872L945,880Z" fill="#484848" stroke="#484848" stroke-width="1.51"/><path d="M945,880L1030,872L992,789Z" fill="#4f4f4f" stroke="#4f4f4f" stroke-width="1.51"/><path d="M1199,578L1167,480L1140,527Z" fill="#686868" stroke="#686868" stroke-width="1.51"/><path d="M1140,527L1167,480L1144,424Z" fill="#707070" stroke="#707070" stroke-width="1.51"/><path d="M1030,872L1071,832L992,789Z" fill="#4f4f4f" stroke="#4f4f4f" stroke-width="1.51"/><path d="M856,962L919,949L945,880Z" fill="#4a4a4a" stroke="#4a4a4a" stroke-width="1.51"/><path d="M802,101L746,249L823,245Z" fill="#acacac" stroke="#acacac" stroke-width="1.51"/><path d="M669,141L565,108L580,223Z" fill="#c1c1c1" stroke="#c1c1c1" stroke-width="1.51"/><path d="M1075,261L1014,204L1021,296Z" fill="#929292" stroke="#929292" stroke-width="1.51"/><path d="M1178,325L1050,377L1144,424Z" fill="#7e7e7e" stroke="#7e7e7e" stroke-width="1.51"/><path d="M1178,325L1087,279L1050,377Z" fill="#868686" stroke="#868686" stroke-width="1.51"/><path d="M1087,279L1075,261L1021,296Z" fill="#8f8f8f" stroke="#8f8f8f" stroke-width="1.51"/><path d="M402,345L328,354L385,386Z" fill="#bdbdbd" stroke="#bdbdbd" stroke-width="1.51"/><path d="M240,559L268,654L331,566Z" fill="#a6a6a6" stroke="#a6a6a6" stroke-width="1.51"/><path d="M385,253L508,292L508,248Z" fill="#c2c2c2" stroke="#c2c2c2" stroke-width="1.51"/><path d="M328,354L312,383L385,386Z" fill="#bdbdbd" stroke="#bdbdbd" stroke-width="1.51"/><path d="M1122,715L1162,686L1073,681Z" fill="#5b5b5b" stroke="#5b5b5b" stroke-width="1.51"/><path d="M1184,752L1162,686L1122,715Z" fill="#555555" stroke="#555555" stroke-width="1.51"/><path d="M884,20L802,101L877,143Z" fill="#b0b0b0" stroke="#b0b0b0" stroke-width="1.51"/><path d="M877,143L802,101L823,245Z" fill="#acacac" stroke="#acacac" stroke-width="1.51"/><path d="M350,731L373,828L455,713Z" fill="#8b8b8b" stroke="#8b8b8b" stroke-width="1.51"/><path d="M360,196L385,253L368,185Z" fill="#cdcdcd" stroke="#cdcdcd" stroke-width="1.51"/><path d="M373,828L418,880L507,795Z" fill="#7c7c7c" stroke="#7c7c7c" stroke-width="1.51"/><path d="M1162,686L1199,578L1104,604Z" fill="#5f5f5f" stroke="#5f5f5f" stroke-width="1.51"/><path d="M729,1038L706,906L711,1050Z" fill="#505050" stroke="#505050" stroke-width="1.51"/><path d="M856,962L914,998L919,949Z" fill="#464646" stroke="#464646" stroke-width="1.51"/><path d="M705,72L669,141L748,104Z" fill="#bbbbbb" stroke="#bbbbbb" stroke-width="1.51"/><path d="M623,68L565,108L669,141Z" fill="#c3c3c3" stroke="#c3c3c3" stroke-width="1.51"/><path d="M368,185L385,253L508,248Z" fill="#c9c9c9" stroke="#c9c9c9" stroke-width="1.51"/><path d="M914,998L995,940L919,949Z" fill="#434343" stroke="#434343" stroke-width="1.51"/><path d="M919,949L995,940L945,880Z" fill="#474747" stroke="#474747" stroke-width="1.51"/><path d="M1030,872L1106,948L1071,832Z" fill="#444444" stroke="#444444" stroke-width="1.51"/><path d="M331,566L268,654L360,703Z" fill="#9e9e9e" stroke="#9e9e9e" stroke-width="1.51"/><path d="M350,731L248,796L373,828Z" fill="#8b8b8b" stroke="#8b8b8b" stroke-width="1.51"/><path d="M244,505L331,566L341,463Z" fill="#afafaf" stroke="#afafaf" stroke-width="1.51"/><path d="M826,-2L705,72L748,104Z" fill="#bababa" stroke="#bababa" stroke-width="1.51"/><path d="M825,1009L914,998L856,962Z" fill="#464646" stroke="#464646" stroke-width="1.51"/><path d="M1014,204L945,112L972,251Z" fill="#9e9e9e" stroke="#9e9e9e" stroke-width="1.51"/><path d="M802,101L826,-2L748,104Z" fill="#b6b6b6" stroke="#b6b6b6" stroke-width="1.51"/><path d="M1054,167L945,112L1014,204Z" fill="#9d9d9d" stroke="#9d9d9d" stroke-width="1.51"/><path d="M254,427L244,505L341,463Z" fill="#b5b5b5" stroke="#b5b5b5" stroke-width="1.51"/><path d="M254,427L341,463L312,383Z" fill="#bababa" stroke="#bababa" stroke-width="1.51"/><path d="M825,1009L1001,1024L914,998Z" fill="#404040" stroke="#404040" stroke-width="1.51"/><path d="M711,1050L706,906L575,921Z" fill="#585858" stroke="#585858" stroke-width="1.51"/><path d="M711,1050L575,921L554,1042Z" fill="#575757" stroke="#575757" stroke-width="1.51"/><path d="M244,505L240,559L331,566Z" fill="#acacac" stroke="#acacac" stroke-width="1.51"/><path d="M705,72L623,68L669,141Z" fill="#c0c0c0" stroke="#c0c0c0" stroke-width="1.51"/><path d="M286,303L312,383L328,354Z" fill="#c3c3c3" stroke="#c3c3c3" stroke-width="1.51"/><path d="M286,303L254,427L312,383Z" fill="#c1c1c1" stroke="#c1c1c1" stroke-width="1.51"/><path d="M418,880L433,944L534,925Z" fill="#6c6c6c" stroke="#6c6c6c" stroke-width="1.51"/><path d="M336,927L433,944L418,880Z" fill="#717171" stroke="#717171" stroke-width="1.51"/><path d="M336,927L418,880L373,828Z" fill="#787878" stroke="#787878" stroke-width="1.51"/><path d="M1162,686L1251,608L1199,578Z" fill="#5a5a5a" stroke="#5a5a5a" stroke-width="1.51"/><path d="M1071,832L1184,752L1122,715Z" fill="#525252" stroke="#525252" stroke-width="1.51"/><path d="M1213,847L1184,752L1071,832Z" fill="#484848" stroke="#484848" stroke-width="1.51"/><path d="M1224,444L1178,325L1144,424Z" fill="#767676" stroke="#767676" stroke-width="1.51"/><path d="M1196,190L1119,158L1075,261Z" fill="#909090" stroke="#909090" stroke-width="1.51"/><path d="M1075,261L1054,167L1014,204Z" fill="#969696" stroke="#969696" stroke-width="1.51"/><path d="M1224,444L1144,424L1167,480Z" fill="#707070" stroke="#707070" stroke-width="1.51"/><path d="M1119,158L1054,167L1075,261Z" fill="#949494" stroke="#949494" stroke-width="1.51"/><path d="M729,1038L711,1050L825,1009Z" fill="#494949" stroke="#494949" stroke-width="1.51"/><path d="M540,1023L575,921L534,925Z" fill="#626262" stroke="#626262" stroke-width="1.51"/><path d="M1316,511L1224,444L1199,578Z" fill="#626262" stroke="#626262" stroke-width="1.51"/><path d="M1199,578L1224,444L1167,480Z" fill="#686868" stroke="#686868" stroke-width="1.51"/><path d="M385,253L286,303L328,354Z" fill="#c7c7c7" stroke="#c7c7c7" stroke-width="1.51"/><path d="M272,241L286,303L385,253Z" fill="#cccccc" stroke="#cccccc" stroke-width="1.51"/><path d="M448,1020L540,1023L534,925Z" fill="#616161" stroke="#616161" stroke-width="1.51"/><path d="M368,185L508,248L527,161Z" fill="#c9c9c9" stroke="#c9c9c9" stroke-width="1.51"/><path d="M368,185L527,161L376,104Z" fill="#d0d0d0" stroke="#d0d0d0" stroke-width="1.51"/><path d="M447,66L527,161L565,108Z" fill="#cccccc" stroke="#cccccc" stroke-width="1.51"/><path d="M1274,672L1251,608L1162,686Z" fill="#545454" stroke="#545454" stroke-width="1.51"/><path d="M268,654L238,721L350,731Z" fill="#999999" stroke="#999999" stroke-width="1.51"/><path d="M166,659L238,721L268,654Z" fill="#9f9f9f" stroke="#9f9f9f" stroke-width="1.51"/><path d="M540,1023L554,1042L575,921Z" fill="#5d5d5d" stroke="#5d5d5d" stroke-width="1.51"/><path d="M448,1020L554,1042L540,1023Z" fill="#5c5c5c" stroke="#5c5c5c" stroke-width="1.51"/><path d="M254,427L197,461L244,505Z" fill="#b8b8b8" stroke="#b8b8b8" stroke-width="1.51"/><path d="M244,505L129,571L240,559Z" fill="#b0b0b0" stroke="#b0b0b0" stroke-width="1.51"/><path d="M240,559L166,659L268,654Z" fill="#a5a5a5" stroke="#a5a5a5" stroke-width="1.51"/><path d="M185,429L197,461L254,427Z" fill="#bcbcbc" stroke="#bcbcbc" stroke-width="1.51"/><path d="M238,721L248,796L350,731Z" fill="#949494" stroke="#949494" stroke-width="1.51"/><path d="M433,944L448,1020L534,925Z" fill="#676767" stroke="#676767" stroke-width="1.51"/><path d="M136,711L248,796L238,721Z" fill="#989898" stroke="#989898" stroke-width="1.51"/><path d="M995,940L1106,948L1030,872Z" fill="#414141" stroke="#414141" stroke-width="1.51"/><path d="M914,998L1001,1024L995,940Z" fill="#3f3f3f" stroke="#3f3f3f" stroke-width="1.51"/><path d="M711,1050L1001,1024L825,1009Z" fill="#434343" stroke="#434343" stroke-width="1.51"/><path d="M1001,1024L1106,948L995,940Z" fill="#3c3c3c" stroke="#3c3c3c" stroke-width="1.51"/><path d="M1184,752L1274,672L1162,686Z" fill="#515151" stroke="#515151" stroke-width="1.51"/><path d="M248,796L336,927L373,828Z" fill="#808080" stroke="#808080" stroke-width="1.51"/><path d="M945,112L884,20L877,143Z" fill="#ababab" stroke="#ababab" stroke-width="1.51"/><path d="M629,-68L529,36L623,68Z" fill="#cdcdcd" stroke="#cdcdcd" stroke-width="1.51"/><path d="M926,30L884,20L945,112Z" fill="#adadad" stroke="#adadad" stroke-width="1.51"/><path d="M1054,167L1016,77L945,112Z" fill="#a1a1a1" stroke="#a1a1a1" stroke-width="1.51"/><path d="M1196,190L1075,261L1087,279Z" fill="#8d8d8d" stroke="#8d8d8d" stroke-width="1.51"/><path d="M1196,190L1087,279L1178,325Z" fill="#888888" stroke="#888888" stroke-width="1.51"/><path d="M1119,158L1016,77L1054,167Z" fill="#9b9b9b" stroke="#9b9b9b" stroke-width="1.51"/><path d="M336,927L448,1020L433,944Z" fill="#6b6b6b" stroke="#6b6b6b" stroke-width="1.51"/><path d="M623,68L529,36L565,108Z" fill="#cacaca" stroke="#cacaca" stroke-width="1.51"/><path d="M670,-14L623,68L705,72Z" fill="#c4c4c4" stroke="#c4c4c4" stroke-width="1.51"/><path d="M137,335L185,429L254,427Z" fill="#c3c3c3" stroke="#c3c3c3" stroke-width="1.51"/><path d="M360,196L272,241L385,253Z" fill="#cecece" stroke="#cecece" stroke-width="1.51"/><path d="M285,119L272,241L360,196Z" fill="#d4d4d4" stroke="#d4d4d4" stroke-width="1.51"/><path d="M285,119L360,196L368,185Z" fill="#d3d3d3" stroke="#d3d3d3" stroke-width="1.51"/><path d="M1016,77L926,30L945,112Z" fill="#a8a8a8" stroke="#a8a8a8" stroke-width="1.51"/><path d="M1302,718L1274,672L1184,752Z" fill="#4b4b4b" stroke="#4b4b4b" stroke-width="1.51"/><path d="M1306,381L1277,349L1224,444Z" fill="#6d6d6d" stroke="#6d6d6d" stroke-width="1.51"/><path d="M799,-35L942,-127L837,-150Z" fill="#bbbbbb" stroke="#bbbbbb" stroke-width="1.51"/><path d="M884,20L826,-2L802,101Z" fill="#b5b5b5" stroke="#b5b5b5" stroke-width="1.51"/><path d="M129,571L166,659L240,559Z" fill="#ababab" stroke="#ababab" stroke-width="1.51"/><path d="M137,335L254,427L286,303Z" fill="#c7c7c7" stroke="#c7c7c7" stroke-width="1.51"/><path d="M529,36L447,66L565,108Z" fill="#d0d0d0" stroke="#d0d0d0" stroke-width="1.51"/><path d="M799,-35L670,-14L705,72Z" fill="#c1c1c1" stroke="#c1c1c1" stroke-width="1.51"/><path d="M1187,915L1213,847L1071,832Z" fill="#404040" stroke="#404040" stroke-width="1.51"/><path d="M447,66L376,104L527,161Z" fill="#d1d1d1" stroke="#d1d1d1" stroke-width="1.51"/><path d="M129,571L244,505L197,461Z" fill="#b4b4b4" stroke="#b4b4b4" stroke-width="1.51"/><path d="M1224,444L1277,349L1178,325Z" fill="#747474" stroke="#747474" stroke-width="1.51"/><path d="M1316,511L1199,578L1251,608Z" fill="#5b5b5b" stroke="#5b5b5b" stroke-width="1.51"/><path d="M1106,948L1187,915L1071,832Z" fill="#3e3e3e" stroke="#3e3e3e" stroke-width="1.51"/><path d="M1191,1023L1187,915L1106,948Z" fill="#333333" stroke="#333333" stroke-width="1.51"/><path d="M1383,573L1316,511L1251,608Z" fill="#535353" stroke="#535353" stroke-width="1.51"/><path d="M1119,158L1101,26L1016,77Z" fill="#9d9d9d" stroke="#9d9d9d" stroke-width="1.51"/><path d="M1240,192L1196,190L1178,325Z" fill="#858585" stroke="#858585" stroke-width="1.51"/><path d="M826,-2L799,-35L705,72Z" fill="#bcbcbc" stroke="#bcbcbc" stroke-width="1.51"/><path d="M967,-59L826,-2L884,20Z" fill="#b4b4b4" stroke="#b4b4b4" stroke-width="1.51"/><path d="M1274,672L1359,669L1251,608Z" fill="#4d4d4d" stroke="#4d4d4d" stroke-width="1.51"/><path d="M1312,822L1302,718L1184,752Z" fill="#444444" stroke="#444444" stroke-width="1.51"/><path d="M1359,669L1302,718L1377,740Z" fill="#414141" stroke="#414141" stroke-width="1.51"/><path d="M1277,349L1240,192L1178,325Z" fill="#7d7d7d" stroke="#7d7d7d" stroke-width="1.51"/><path d="M1316,511L1306,381L1224,444Z" fill="#646464" stroke="#646464" stroke-width="1.51"/><path d="M1001,1024L1114,1012L1106,948Z" fill="#373737" stroke="#373737" stroke-width="1.51"/><path d="M107,507L129,571L197,461Z" fill="#b6b6b6" stroke="#b6b6b6" stroke-width="1.51"/><path d="M336,927L287,991L448,1020Z" fill="#6b6b6b" stroke="#6b6b6b" stroke-width="1.51"/><path d="M248,796L275,962L336,927Z" fill="#7a7a7a" stroke="#7a7a7a" stroke-width="1.51"/><path d="M157,881L275,962L248,796Z" fill="#808080" stroke="#808080" stroke-width="1.51"/><path d="M136,711L238,721L166,659Z" fill="#9e9e9e" stroke="#9e9e9e" stroke-width="1.51"/><path d="M90,644L136,711L166,659Z" fill="#a4a4a4" stroke="#a4a4a4" stroke-width="1.51"/><path d="M347,34L285,119L376,104Z" fill="#dadada" stroke="#dadada" stroke-width="1.51"/><path d="M376,104L285,119L368,185Z" fill="#d6d6d6" stroke="#d6d6d6" stroke-width="1.51"/><path d="M54,374L107,507L185,429Z" fill="#c1c1c1" stroke="#c1c1c1" stroke-width="1.51"/><path d="M185,429L107,507L197,461Z" fill="#bbbbbb" stroke="#bbbbbb" stroke-width="1.51"/><path d="M347,34L376,104L387,5Z" fill="#dbdbdb" stroke="#dbdbdb" stroke-width="1.51"/><path d="M502,-48L447,66L529,36Z" fill="#d5d5d5" stroke="#d5d5d5" stroke-width="1.51"/><path d="M1186,34L1101,26L1119,158Z" fill="#999999" stroke="#999999" stroke-width="1.51"/><path d="M1016,77L967,-59L926,30Z" fill="#ababab" stroke="#ababab" stroke-width="1.51"/><path d="M1340,283L1240,192L1277,349Z" fill="#777777" stroke="#777777" stroke-width="1.51"/><path d="M670,-14L629,-68L623,68Z" fill="#c9c9c9" stroke="#c9c9c9" stroke-width="1.51"/><path d="M675,-77L629,-68L670,-14Z" fill="#cacaca" stroke="#cacaca" stroke-width="1.51"/><path d="M137,335L286,303L157,237Z" fill="#d0d0d0" stroke="#d0d0d0" stroke-width="1.51"/><path d="M129,571L90,644L166,659Z" fill="#aaaaaa" stroke="#aaaaaa" stroke-width="1.51"/><path d="M275,962L287,991L336,927Z" fill="#717171" stroke="#717171" stroke-width="1.51"/><path d="M448,1020L300,1048L554,1042Z" fill="#606060" stroke="#606060" stroke-width="1.51"/><path d="M300,1048L287,991L177,1019Z" fill="#6c6c6c" stroke="#6c6c6c" stroke-width="1.51"/><path d="M799,-35L675,-77L670,-14Z" fill="#c4c4c4" stroke="#c4c4c4" stroke-width="1.51"/><path d="M157,237L286,303L272,241Z" fill="#d1d1d1" stroke="#d1d1d1" stroke-width="1.51"/><path d="M1302,718L1359,669L1274,672Z" fill="#474747" stroke="#474747" stroke-width="1.51"/><path d="M1316,511L1355,377L1306,381Z" fill="#626262" stroke="#626262" stroke-width="1.51"/><path d="M1312,822L1184,752L1213,847Z" fill="#404040" stroke="#404040" stroke-width="1.51"/><path d="M507,-86L502,-48L629,-68Z" fill="#d5d5d5" stroke="#d5d5d5" stroke-width="1.51"/><path d="M629,-68L502,-48L529,36Z" fill="#d3d3d3" stroke="#d3d3d3" stroke-width="1.51"/><path d="M1222,114L1119,158L1196,190Z" fill="#8f8f8f" stroke="#8f8f8f" stroke-width="1.51"/><path d="M926,30L967,-59L884,20Z" fill="#b0b0b0" stroke="#b0b0b0" stroke-width="1.51"/><path d="M776,-140L629,-119L675,-77Z" fill="#cacaca" stroke="#cacaca" stroke-width="1.51"/><path d="M1263,941L1213,847L1187,915Z" fill="#343434" stroke="#343434" stroke-width="1.51"/><path d="M1330,865L1312,822L1213,847Z" fill="#363636" stroke="#363636" stroke-width="1.51"/><path d="M387,5L376,104L447,66Z" fill="#d8d8d8" stroke="#d8d8d8" stroke-width="1.51"/><path d="M502,-48L387,5L447,66Z" fill="#d9d9d9" stroke="#d9d9d9" stroke-width="1.51"/><path d="M1306,381L1340,283L1277,349Z" fill="#6e6e6e" stroke="#6e6e6e" stroke-width="1.51"/><path d="M1396,486L1355,377L1316,511Z" fill="#5b5b5b" stroke="#5b5b5b" stroke-width="1.51"/><path d="M177,1019L287,991L275,962Z" fill="#707070" stroke="#707070" stroke-width="1.51"/><path d="M53,551L90,644L129,571Z" fill="#b0b0b0" stroke="#b0b0b0" stroke-width="1.51"/><path d="M1005,-65L967,-59L1016,77Z" fill="#ababab" stroke="#ababab" stroke-width="1.51"/><path d="M1359,669L1383,573L1251,608Z" fill="#4d4d4d" stroke="#4d4d4d" stroke-width="1.51"/><path d="M189,172L272,241L285,119Z" fill="#d8d8d8" stroke="#d8d8d8" stroke-width="1.51"/><path d="M189,172L157,237L272,241Z" fill="#d7d7d7" stroke="#d7d7d7" stroke-width="1.51"/><path d="M1288,163L1222,114L1240,192Z" fill="#868686" stroke="#868686" stroke-width="1.51"/><path d="M1240,192L1222,114L1196,190Z" fill="#898989" stroke="#898989" stroke-width="1.51"/><path d="M237,74L189,172L285,119Z" fill="#dddddd" stroke="#dddddd" stroke-width="1.51"/><path d="M287,991L300,1048L448,1020Z" fill="#676767" stroke="#676767" stroke-width="1.51"/><path d="M554,1042L300,1048L711,1050Z" fill="#5a5a5a" stroke="#5a5a5a" stroke-width="1.51"/><path d="M157,881L248,796L136,711Z" fill="#909090" stroke="#909090" stroke-width="1.51"/><path d="M1114,1012L1191,1023L1106,948Z" fill="#323232" stroke="#323232" stroke-width="1.51"/><path d="M1001,1024L1191,1023L1114,1012Z" fill="#323232" stroke="#323232" stroke-width="1.51"/><path d="M711,1050L1191,1023L1001,1024Z" fill="#3a3a3a" stroke="#3a3a3a" stroke-width="1.51"/><path d="M1252,971L1263,941L1187,915Z" fill="#2e2e2e" stroke="#2e2e2e" stroke-width="1.51"/><path d="M1355,377L1340,283L1306,381Z" fill="#6a6a6a" stroke="#6a6a6a" stroke-width="1.51"/><path d="M42,796L157,881L136,711Z" fill="#939393" stroke="#939393" stroke-width="1.51"/><path d="M1383,573L1396,486L1316,511Z" fill="#535353" stroke="#535353" stroke-width="1.51"/><path d="M1469,327L1370,241L1340,283Z" fill="#6b6b6b" stroke="#6b6b6b" stroke-width="1.51"/><path d="M1186,34L1126,9L1101,26Z" fill="#9d9d9d" stroke="#9d9d9d" stroke-width="1.51"/><path d="M1101,26L1005,-65L1016,77Z" fill="#a6a6a6" stroke="#a6a6a6" stroke-width="1.51"/><path d="M1191,1023L1252,971L1187,915Z" fill="#2e2e2e" stroke="#2e2e2e" stroke-width="1.51"/><path d="M1442,799L1377,740L1312,822Z" fill="#353535" stroke="#353535" stroke-width="1.51"/><path d="M776,-140L675,-77L799,-35Z" fill="#c3c3c3" stroke="#c3c3c3" stroke-width="1.51"/><path d="M1111,-101L1005,-65L1101,26Z" fill="#a6a6a6" stroke="#a6a6a6" stroke-width="1.51"/><path d="M400,-90L367,-65L387,5Z" fill="#e0e0e0" stroke="#e0e0e0" stroke-width="1.51"/><path d="M274,-67L237,74L347,34Z" fill="#e3e3e3" stroke="#e3e3e3" stroke-width="1.51"/><path d="M629,-119L507,-86L629,-68Z" fill="#d3d3d3" stroke="#d3d3d3" stroke-width="1.51"/><path d="M629,-119L629,-68L675,-77Z" fill="#cdcdcd" stroke="#cdcdcd" stroke-width="1.51"/><path d="M1359,669L1442,622L1383,573Z" fill="#464646" stroke="#464646" stroke-width="1.51"/><path d="M1383,573L1420,493L1396,486Z" fill="#515151" stroke="#515151" stroke-width="1.51"/><path d="M1312,822L1377,740L1302,718Z" fill="#3e3e3e" stroke="#3e3e3e" stroke-width="1.51"/><path d="M1330,865L1213,847L1263,941Z" fill="#313131" stroke="#313131" stroke-width="1.51"/><path d="M776,-140L799,-35L837,-150Z" fill="#bfbfbf" stroke="#bfbfbf" stroke-width="1.51"/><path d="M1340,283L1288,163L1240,192Z" fill="#7d7d7d" stroke="#7d7d7d" stroke-width="1.51"/><path d="M1222,114L1186,34L1119,158Z" fill="#939393" stroke="#939393" stroke-width="1.51"/><path d="M1342,966L1330,865L1263,941Z" fill="#282828" stroke="#282828" stroke-width="1.51"/><path d="M157,881L178,940L275,962Z" fill="#7a7a7a" stroke="#7a7a7a" stroke-width="1.51"/><path d="M90,644L43,721L136,711Z" fill="#a4a4a4" stroke="#a4a4a4" stroke-width="1.51"/><path d="M107,507L53,551L129,571Z" fill="#b5b5b5" stroke="#b5b5b5" stroke-width="1.51"/><path d="M-30,465L53,551L107,507Z" fill="#bcbcbc" stroke="#bcbcbc" stroke-width="1.51"/><path d="M54,374L185,429L137,335Z" fill="#c8c8c8" stroke="#c8c8c8" stroke-width="1.51"/><path d="M157,237L100,295L137,335Z" fill="#d4d4d4" stroke="#d4d4d4" stroke-width="1.51"/><path d="M46,269L100,295L157,237Z" fill="#d8d8d8" stroke="#d8d8d8" stroke-width="1.51"/><path d="M347,34L237,74L285,119Z" fill="#dedede" stroke="#dedede" stroke-width="1.51"/><path d="M189,172L34,178L157,237Z" fill="#dddddd" stroke="#dddddd" stroke-width="1.51"/><path d="M367,-65L347,34L387,5Z" fill="#dfdfdf" stroke="#dfdfdf" stroke-width="1.51"/><path d="M1269,72L1186,34L1222,114Z" fill="#8f8f8f" stroke="#8f8f8f" stroke-width="1.51"/><path d="M1111,-101L987,-99L1005,-65Z" fill="#ababab" stroke="#ababab" stroke-width="1.51"/><path d="M799,-35L826,-2L942,-127Z" fill="#b9b9b9" stroke="#b9b9b9" stroke-width="1.51"/><path d="M1442,622L1420,493L1383,573Z" fill="#4a4a4a" stroke="#4a4a4a" stroke-width="1.51"/><path d="M1396,486L1423,416L1355,377Z" fill="#5b5b5b" stroke="#5b5b5b" stroke-width="1.51"/><path d="M1005,-65L987,-99L967,-59Z" fill="#aeaeae" stroke="#aeaeae" stroke-width="1.51"/><path d="M1111,-101L1101,26L1126,9Z" fill="#a2a2a2" stroke="#a2a2a2" stroke-width="1.51"/><path d="M1186,34L1177,11L1126,9Z" fill="#9b9b9b" stroke="#9b9b9b" stroke-width="1.51"/><path d="M1239,-34L1177,11L1186,34Z" fill="#979797" stroke="#979797" stroke-width="1.51"/><path d="M100,295L54,374L137,335Z" fill="#d0d0d0" stroke="#d0d0d0" stroke-width="1.51"/><path d="M1340,283L1370,241L1288,163Z" fill="#767676" stroke="#767676" stroke-width="1.51"/><path d="M1420,493L1423,416L1396,486Z" fill="#555555" stroke="#555555" stroke-width="1.51"/><path d="M776,-140L296,-122L629,-119Z" fill="#d6d6d6" stroke="#d6d6d6" stroke-width="1.51"/><path d="M942,-127L826,-2L967,-59Z" fill="#b4b4b4" stroke="#b4b4b4" stroke-width="1.51"/><path d="M987,-99L942,-127L967,-59Z" fill="#b1b1b1" stroke="#b1b1b1" stroke-width="1.51"/><path d="M1111,-101L942,-127L987,-99Z" fill="#aeaeae" stroke="#aeaeae" stroke-width="1.51"/><path d="M1469,327L1340,283L1355,377Z" fill="#676767" stroke="#676767" stroke-width="1.51"/><path d="M1288,163L1269,72L1222,114Z" fill="#888888" stroke="#888888" stroke-width="1.51"/><path d="M1377,740L1427,692L1359,669Z" fill="#3e3e3e" stroke="#3e3e3e" stroke-width="1.51"/><path d="M1522,405L1469,327L1423,416Z" fill="#5a5a5a" stroke="#5a5a5a" stroke-width="1.51"/><path d="M1445,793L1427,692L1377,740Z" fill="#383838" stroke="#383838" stroke-width="1.51"/><path d="M-2,669L43,721L90,644Z" fill="#a7a7a7" stroke="#a7a7a7" stroke-width="1.51"/><path d="M44,975L177,1019L178,940Z" fill="#767676" stroke="#767676" stroke-width="1.51"/><path d="M-2,669L90,644L-20,611Z" fill="#acacac" stroke="#acacac" stroke-width="1.51"/><path d="M400,-90L502,-48L507,-86Z" fill="#dcdcdc" stroke="#dcdcdc" stroke-width="1.51"/><path d="M400,-90L387,5L502,-48Z" fill="#dddddd" stroke="#dddddd" stroke-width="1.51"/><path d="M1427,692L1442,622L1359,669Z" fill="#414141" stroke="#414141" stroke-width="1.51"/><path d="M1366,70L1269,72L1288,163Z" fill="#838383" stroke="#838383" stroke-width="1.51"/><path d="M367,-65L400,-90L296,-122Z" fill="#e4e4e4" stroke="#e4e4e4" stroke-width="1.51"/><path d="M629,-119L400,-90L507,-86Z" fill="#dadada" stroke="#dadada" stroke-width="1.51"/><path d="M100,295L46,269L54,374Z" fill="#d4d4d4" stroke="#d4d4d4" stroke-width="1.51"/><path d="M237,74L163,100L189,172Z" fill="#e0e0e0" stroke="#e0e0e0" stroke-width="1.51"/><path d="M99,14L163,100L237,74Z" fill="#e6e6e6" stroke="#e6e6e6" stroke-width="1.51"/><path d="M71,898L178,940L157,881Z" fill="#7f7f7f" stroke="#7f7f7f" stroke-width="1.51"/><path d="M178,940L177,1019L275,962Z" fill="#737373" stroke="#737373" stroke-width="1.51"/><path d="M43,721L42,796L136,711Z" fill="#9e9e9e" stroke="#9e9e9e" stroke-width="1.51"/><path d="M1252,971L1342,966L1263,941Z" fill="#272727" stroke="#272727" stroke-width="1.51"/><path d="M1330,865L1442,799L1312,822Z" fill="#303030" stroke="#303030" stroke-width="1.51"/><path d="M1191,1023L1342,966L1252,971Z" fill="#272727" stroke="#272727" stroke-width="1.51"/><path d="M34,178L46,269L157,237Z" fill="#dcdcdc" stroke="#dcdcdc" stroke-width="1.51"/><path d="M-20,611L90,644L53,551Z" fill="#b0b0b0" stroke="#b0b0b0" stroke-width="1.51"/><path d="M43,721L12,800L42,796Z" fill="#9b9b9b" stroke="#9b9b9b" stroke-width="1.51"/><path d="M-20,611L53,551L-78,571Z" fill="#b5b5b5" stroke="#b5b5b5" stroke-width="1.51"/><path d="M42,796L71,898L157,881Z" fill="#8a8a8a" stroke="#8a8a8a" stroke-width="1.51"/><path d="M12,800L71,898L42,796Z" fill="#909090" stroke="#909090" stroke-width="1.51"/><path d="M942,-127L1259,-136L837,-150Z" fill="#afafaf" stroke="#afafaf" stroke-width="1.51"/><path d="M1152,-104L1111,-101L1126,9Z" fill="#a2a2a2" stroke="#a2a2a2" stroke-width="1.51"/><path d="M1152,-104L1126,9L1177,11Z" fill="#9e9e9e" stroke="#9e9e9e" stroke-width="1.51"/><path d="M1530,658L1519,545L1442,622Z" fill="#3f3f3f" stroke="#3f3f3f" stroke-width="1.51"/><path d="M1437,936L1442,799L1330,865Z" fill="#272727" stroke="#272727" stroke-width="1.51"/><path d="M1442,799L1445,793L1377,740Z" fill="#333333" stroke="#333333" stroke-width="1.51"/><path d="M-30,465L107,507L54,374Z" fill="#c3c3c3" stroke="#c3c3c3" stroke-width="1.51"/><path d="M-14,723L43,721L-2,669Z" fill="#a5a5a5" stroke="#a5a5a5" stroke-width="1.51"/><path d="M-14,723L12,800L43,721Z" fill="#a0a0a0" stroke="#a0a0a0" stroke-width="1.51"/><path d="M-100,776L-14,723L-137,666Z" fill="#a6a6a6" stroke="#a6a6a6" stroke-width="1.51"/><path d="M-56,440L-30,465L54,374Z" fill="#c8c8c8" stroke="#c8c8c8" stroke-width="1.51"/><path d="M-20,611L-137,666L-2,669Z" fill="#aeaeae" stroke="#aeaeae" stroke-width="1.51"/><path d="M367,-65L274,-67L347,34Z" fill="#e3e3e3" stroke="#e3e3e3" stroke-width="1.51"/><path d="M163,100L34,178L189,172Z" fill="#e1e1e1" stroke="#e1e1e1" stroke-width="1.51"/><path d="M296,-122L274,-67L367,-65Z" fill="#e7e7e7" stroke="#e7e7e7" stroke-width="1.51"/><path d="M1370,241L1400,148L1288,163Z" fill="#777777" stroke="#777777" stroke-width="1.51"/><path d="M1423,416L1469,327L1355,377Z" fill="#5f5f5f" stroke="#5f5f5f" stroke-width="1.51"/><path d="M1522,405L1423,416L1420,493Z" fill="#555555" stroke="#555555" stroke-width="1.51"/><path d="M1519,545L1420,493L1442,622Z" fill="#484848" stroke="#484848" stroke-width="1.51"/><path d="M1269,72L1239,-34L1186,34Z" fill="#929292" stroke="#929292" stroke-width="1.51"/><path d="M1400,10L1239,-34L1269,72Z" fill="#898989" stroke="#898989" stroke-width="1.51"/><path d="M1111,-101L1259,-136L942,-127Z" fill="#a7a7a7" stroke="#a7a7a7" stroke-width="1.51"/><path d="M1239,-34L1152,-104L1177,11Z" fill="#9b9b9b" stroke="#9b9b9b" stroke-width="1.51"/><path d="M1448,202L1400,148L1370,241Z" fill="#727272" stroke="#727272" stroke-width="1.51"/><path d="M1342,966L1396,970L1330,865Z" fill="#232323" stroke="#232323" stroke-width="1.51"/><path d="M1517,822L1512,780L1445,793Z" fill="#2b2b2b" stroke="#2b2b2b" stroke-width="1.51"/><path d="M1419,985L1396,970L1342,966Z" fill="#1d1d1d" stroke="#1d1d1d" stroke-width="1.51"/><path d="M1530,658L1442,622L1427,692Z" fill="#3d3d3d" stroke="#3d3d3d" stroke-width="1.51"/><path d="M1530,658L1427,692L1512,780Z" fill="#363636" stroke="#363636" stroke-width="1.51"/><path d="M-53,354L-56,440L54,374Z" fill="#cdcdcd" stroke="#cdcdcd" stroke-width="1.51"/><path d="M35,97L34,178L163,100Z" fill="#e5e5e5" stroke="#e5e5e5" stroke-width="1.51"/><path d="M1400,148L1366,70L1288,163Z" fill="#7c7c7c" stroke="#7c7c7c" stroke-width="1.51"/><path d="M274,-67L199,-58L237,74Z" fill="#e7e7e7" stroke="#e7e7e7" stroke-width="1.51"/><path d="M296,-122L245,-80L274,-67Z" fill="#eaeaea" stroke="#eaeaea" stroke-width="1.51"/><path d="M296,-122L400,-90L629,-119Z" fill="#e0e0e0" stroke="#e0e0e0" stroke-width="1.51"/><path d="M-30,465L-78,571L53,551Z" fill="#bbbbbb" stroke="#bbbbbb" stroke-width="1.51"/><path d="M-53,354L54,374L46,269Z" fill="#d4d4d4" stroke="#d4d4d4" stroke-width="1.51"/><path d="M1469,327L1448,202L1370,241Z" fill="#6b6b6b" stroke="#6b6b6b" stroke-width="1.51"/><path d="M1451,51L1400,10L1366,70Z" fill="#7d7d7d" stroke="#7d7d7d" stroke-width="1.51"/><path d="M1509,323L1448,202L1469,327Z" fill="#646464" stroke="#646464" stroke-width="1.51"/><path d="M837,-150L296,-122L776,-140Z" fill="#d0d0d0" stroke="#d0d0d0" stroke-width="1.51"/><path d="M1519,545L1522,405L1420,493Z" fill="#4e4e4e" stroke="#4e4e4e" stroke-width="1.51"/><path d="M1396,970L1437,936L1330,865Z" fill="#212121" stroke="#212121" stroke-width="1.51"/><path d="M1512,780L1427,692L1445,793Z" fill="#333333" stroke="#333333" stroke-width="1.51"/><path d="M1519,545L1580,500L1522,405Z" fill="#494949" stroke="#494949" stroke-width="1.51"/><path d="M96,-111L199,-58L120,-138Z" fill="#f1f1f1" stroke="#f1f1f1" stroke-width="1.51"/><path d="M245,-80L199,-58L274,-67Z" fill="#eaeaea" stroke="#eaeaea" stroke-width="1.51"/><path d="M-60,316L-53,354L46,269Z" fill="#d8d8d8" stroke="#d8d8d8" stroke-width="1.51"/><path d="M1522,405L1509,323L1469,327Z" fill="#5b5b5b" stroke="#5b5b5b" stroke-width="1.51"/><path d="M-46,930L44,975L71,898Z" fill="#818181" stroke="#818181" stroke-width="1.51"/><path d="M71,898L44,975L178,940Z" fill="#7d7d7d" stroke="#7d7d7d" stroke-width="1.51"/><path d="M-46,930L71,898L12,800Z" fill="#8a8a8a" stroke="#8a8a8a" stroke-width="1.51"/><path d="M-14,723L-82,799L12,800Z" fill="#9d9d9d" stroke="#9d9d9d" stroke-width="1.51"/><path d="M-91,473L-78,571L-30,465Z" fill="#c0c0c0" stroke="#c0c0c0" stroke-width="1.51"/><path d="M-91,473L-30,465L-56,440Z" fill="#c5c5c5" stroke="#c5c5c5" stroke-width="1.51"/><path d="M1517,822L1445,793L1442,799Z" fill="#2c2c2c" stroke="#2c2c2c" stroke-width="1.51"/><path d="M1437,936L1517,822L1442,799Z" fill="#262626" stroke="#262626" stroke-width="1.51"/><path d="M1396,970L1419,985L1437,936Z" fill="#1b1b1b" stroke="#1b1b1b" stroke-width="1.51"/><path d="M1191,1023L1419,985L1342,966Z" fill="#212121" stroke="#212121" stroke-width="1.51"/><path d="M1538,184L1462,179L1448,202Z" fill="#6b6b6b" stroke="#6b6b6b" stroke-width="1.51"/><path d="M1448,202L1462,179L1400,148Z" fill="#707070" stroke="#707070" stroke-width="1.51"/><path d="M34,178L-34,248L46,269Z" fill="#dedede" stroke="#dedede" stroke-width="1.51"/><path d="M-64,172L-34,248L34,178Z" fill="#e2e2e2" stroke="#e2e2e2" stroke-width="1.51"/><path d="M-137,399L-91,473L-56,440Z" fill="#c9c9c9" stroke="#c9c9c9" stroke-width="1.51"/><path d="M-34,248L-60,316L46,269Z" fill="#dbdbdb" stroke="#dbdbdb" stroke-width="1.51"/><path d="M-137,399L-56,440L-53,354Z" fill="#cecece" stroke="#cecece" stroke-width="1.51"/><path d="M199,-58L99,14L237,74Z" fill="#e9e9e9" stroke="#e9e9e9" stroke-width="1.51"/><path d="M99,14L35,97L163,100Z" fill="#e9e9e9" stroke="#e9e9e9" stroke-width="1.51"/><path d="M1512,780L1517,822L1530,658Z" fill="#2f2f2f" stroke="#2f2f2f" stroke-width="1.51"/><path d="M1570,961L1517,822L1437,936Z" fill="#1b1b1b" stroke="#1b1b1b" stroke-width="1.51"/><path d="M1570,961L1580,500L1530,658Z" fill="#313131" stroke="#313131" stroke-width="1.51"/><path d="M1530,658L1580,500L1519,545Z" fill="#404040" stroke="#404040" stroke-width="1.51"/><path d="M1522,405L1551,216L1509,323Z" fill="#5d5d5d" stroke="#5d5d5d" stroke-width="1.51"/><path d="M1498,33L1451,51L1462,179Z" fill="#747474" stroke="#747474" stroke-width="1.51"/><path d="M-14,723L-2,669L-137,666Z" fill="#a9a9a9" stroke="#a9a9a9" stroke-width="1.51"/><path d="M-100,776L-82,799L-14,723Z" fill="#a0a0a0" stroke="#a0a0a0" stroke-width="1.51"/><path d="M1451,51L1400,148L1462,179Z" fill="#747474" stroke="#747474" stroke-width="1.51"/><path d="M1451,51L1366,70L1400,148Z" fill="#7a7a7a" stroke="#7a7a7a" stroke-width="1.51"/><path d="M1366,70L1400,10L1269,72Z" fill="#828282" stroke="#828282" stroke-width="1.51"/><path d="M1239,-34L1259,-136L1152,-104Z" fill="#999999" stroke="#999999" stroke-width="1.51"/><path d="M-137,666L-20,611L-78,571Z" fill="#b2b2b2" stroke="#b2b2b2" stroke-width="1.51"/><path d="M-82,799L-46,930L12,800Z" fill="#919191" stroke="#919191" stroke-width="1.51"/><path d="M1356,-148L1259,-136L1239,-34Z" fill="#929292" stroke="#929292" stroke-width="1.51"/><path d="M1152,-104L1259,-136L1111,-101Z" fill="#a0a0a0" stroke="#a0a0a0" stroke-width="1.51"/><path d="M-77,978L-46,930L-97,946Z" fill="#828282" stroke="#828282" stroke-width="1.51"/><path d="M1400,10L1356,-148L1239,-34Z" fill="#898989" stroke="#898989" stroke-width="1.51"/><path d="M1551,216L1448,202L1509,323Z" fill="#656565" stroke="#656565" stroke-width="1.51"/><path d="M-137,399L-137,666L-91,473Z" fill="#c0c0c0" stroke="#c0c0c0" stroke-width="1.51"/><path d="M-91,473L-137,666L-78,571Z" fill="#b9b9b9" stroke="#b9b9b9" stroke-width="1.51"/><path d="M-47,133L34,178L35,97Z" fill="#e7e7e7" stroke="#e7e7e7" stroke-width="1.51"/><path d="M-47,133L-64,172L34,178Z" fill="#e6e6e6" stroke="#e6e6e6" stroke-width="1.51"/><path d="M-34,248L-143,262L-60,316Z" fill="#dddddd" stroke="#dddddd" stroke-width="1.51"/><path d="M-60,316L-137,399L-53,354Z" fill="#d4d4d4" stroke="#d4d4d4" stroke-width="1.51"/><path d="M-143,262L-137,399L-60,316Z" fill="#d9d9d9" stroke="#d9d9d9" stroke-width="1.51"/><path d="M-51,103L-47,133L35,97Z" fill="#eaeaea" stroke="#eaeaea" stroke-width="1.51"/><path d="M-46,930L-42,973L44,975Z" fill="#7f7f7f" stroke="#7f7f7f" stroke-width="1.51"/><path d="M44,975L-77,978L177,1019Z" fill="#797979" stroke="#797979" stroke-width="1.51"/><path d="M177,1019L-77,978L300,1048Z" fill="#727272" stroke="#727272" stroke-width="1.51"/><path d="M-77,978L-42,973L-46,930Z" fill="#808080" stroke="#808080" stroke-width="1.51"/><path d="M-46,930L-82,799L-97,946Z" fill="#898989" stroke="#898989" stroke-width="1.51"/><path d="M1580,500L1551,216L1522,405Z" fill="#545454" stroke="#545454" stroke-width="1.51"/><path d="M1551,216L1538,184L1448,202Z" fill="#686868" stroke="#686868" stroke-width="1.51"/><path d="M-27,-17L-51,103L35,97Z" fill="#eeeeee" stroke="#eeeeee" stroke-width="1.51"/><path d="M-47,133L-94,72L-64,172Z" fill="#ebebeb" stroke="#ebebeb" stroke-width="1.51"/><path d="M-64,172L-143,262L-34,248Z" fill="#e2e2e2" stroke="#e2e2e2" stroke-width="1.51"/><path d="M-27,-17L35,97L99,14Z" fill="#efefef" stroke="#efefef" stroke-width="1.51"/><path d="M96,-111L99,14L199,-58Z" fill="#efefef" stroke="#efefef" stroke-width="1.51"/><path d="M120,-138L199,-58L245,-80Z" fill="#eeeeee" stroke="#eeeeee" stroke-width="1.51"/><path d="M-42,973L-77,978L44,975Z" fill="#7d7d7d" stroke="#7d7d7d" stroke-width="1.51"/><path d="M-97,946L-82,799L-100,776Z" fill="#939393" stroke="#939393" stroke-width="1.51"/><path d="M-137,666L-97,946L-100,776Z" fill="#9b9b9b" stroke="#9b9b9b" stroke-width="1.51"/><path d="M296,-122L120,-138L245,-80Z" fill="#ededed" stroke="#ededed" stroke-width="1.51"/><path d="M837,-150L120,-138L296,-122Z" fill="#e2e2e2" stroke="#e2e2e2" stroke-width="1.51"/><path d="M-94,72L-143,262L-64,172Z" fill="#e8e8e8" stroke="#e8e8e8" stroke-width="1.51"/><path d="M-137,399L-143,262L-137,666Z" fill="#cacaca" stroke="#cacaca" stroke-width="1.51"/><path d="M1451,51L1472,-23L1400,10Z" fill="#7c7c7c" stroke="#7c7c7c" stroke-width="1.51"/><path d="M1538,184L1498,33L1462,179Z" fill="#6f6f6f" stroke="#6f6f6f" stroke-width="1.51"/><path d="M1569,-1L1498,33L1538,184Z" fill="#6f6f6f" stroke="#6f6f6f" stroke-width="1.51"/><path d="M1517,822L1570,961L1530,658Z" fill="#252525" stroke="#252525" stroke-width="1.51"/><path d="M1558,1001L1570,961L1437,936Z" fill="#141414" stroke="#141414" stroke-width="1.51"/><path d="M1558,1001L1437,936L1419,985Z" fill="#171717" stroke="#171717" stroke-width="1.51"/><path d="M1498,33L1472,-23L1451,51Z" fill="#787878" stroke="#787878" stroke-width="1.51"/><path d="M1423,-104L1356,-148L1400,10Z" fill="#848484" stroke="#848484" stroke-width="1.51"/><path d="M1259,-136L1356,-148L837,-150Z" fill="#a4a4a4" stroke="#a4a4a4" stroke-width="1.51"/><path d="M1191,1023L1558,1001L1419,985Z" fill="#1a1a1a" stroke="#1a1a1a" stroke-width="1.51"/><path d="M-51,103L-94,72L-47,133Z" fill="#ececec" stroke="#ececec" stroke-width="1.51"/><path d="M-25,-79L-27,-17L99,14Z" fill="#f3f3f3" stroke="#f3f3f3" stroke-width="1.51"/><path d="M-65,-10L-27,-17L-25,-79Z" fill="#f5f5f5" stroke="#f5f5f5" stroke-width="1.51"/><path d="M1472,-23L1423,-104L1400,10Z" fill="#7f7f7f" stroke="#7f7f7f" stroke-width="1.51"/><path d="M-65,-10L-94,72L-51,103Z" fill="#f0f0f0" stroke="#f0f0f0" stroke-width="1.51"/><path d="M-27,-17L-65,-10L-51,103Z" fill="#f2f2f2" stroke="#f2f2f2" stroke-width="1.51"/><path d="M-25,-79L99,14L96,-111Z" fill="#f3f3f3" stroke="#f3f3f3" stroke-width="1.51"/><path d="M120,-138L-25,-79L96,-111Z" fill="#f5f5f5" stroke="#f5f5f5" stroke-width="1.51"/><path d="M1472,-23L1532,-96L1423,-104Z" fill="#7d7d7d" stroke="#7d7d7d" stroke-width="1.51"/><path d="M1498,33L1569,-1L1472,-23Z" fill="#767676" stroke="#767676" stroke-width="1.51"/><path d="M1551,216L1569,-1L1538,184Z" fill="#6a6a6a" stroke="#6a6a6a" stroke-width="1.51"/><path d="M1580,500L1569,-1L1551,216Z" fill="#606060" stroke="#606060" stroke-width="1.51"/><path d="M1569,-1L1532,-96L1472,-23Z" fill="#777777" stroke="#777777" stroke-width="1.51"/><path d="M1423,-104L1532,-96L1356,-148Z" fill="#828282" stroke="#828282" stroke-width="1.51"/><path d="M-25,-79L-118,-138L-65,-10Z" fill="#f8f8f8" stroke="#f8f8f8" stroke-width="1.51"/><path d="M-65,-10L-118,-138L-94,72Z" fill="#f6f6f6" stroke="#f6f6f6" stroke-width="1.51"/><path d="M-94,72L-118,-138L-143,262Z" fill="#f1f1f1" stroke="#f1f1f1" stroke-width="1.51"/><path d="M120,-138L-118,-138L-25,-79Z" fill="#f8f8f8" stroke="#f8f8f8" stroke-width="1.51"/><path d="M837,-150L-118,-138L120,-138Z" fill="#ececec" stroke="#ececec" stroke-width="1.51"/></svg>